<?xml version="1.0" standalone="no"?>
<!DOCTYPE svg PUBLIC "-//W3C//DTD SVG 20010904//EN"
 "http://www.w3.org/TR/2001/REC-SVG-20010904/DTD/svg10.dtd">
<svg version="1.0" xmlns="http://www.w3.org/2000/svg"
 width="208.000000pt" height="208.000000pt" viewBox="0 0 208.000000 208.000000"
 preserveAspectRatio="xMidYMid meet">

<g transform="translate(0.000000,208.000000) scale(0.100000,-0.100000)"
fill="#000000" stroke="none">
<path d="M918 2040 c-158 -28 -275 -86 -378 -190 -125 -125 -180 -262 -180
-449 0 -174 53 -311 160 -420 95 -96 207 -163 465 -275 227 -100 301 -161 312
-260 13 -110 -56 -200 -189 -251 l-48 -18 0 -75 0 -75 70 7 c231 23 456 156
559 329 62 105 83 179 88 312 8 189 -33 306 -152 434 -97 103 -208 172 -418
257 -163 67 -246 113 -299 165 -116 116 -79 281 80 351 l43 19 -3 72 -3 72
-30 2 c-16 0 -51 -3 -77 -7z"/>
<path d="M1140 1977 l0 -75 37 -13 c100 -33 205 -115 266 -207 53 -79 71 -120
86 -194 21 -101 64 -140 131 -116 47 16 50 38 50 343 0 272 -1 286 -20 305
-35 35 -74 26 -116 -26 -45 -55 -45 -55 -214 4 -63 22 -139 43 -167 47 l-53 7
0 -75z"/>
<path d="M389 750 l-30 -29 3 -322 3 -321 24 -19 c35 -29 69 -24 105 15 48 53
76 60 144 35 160 -59 192 -68 250 -75 l62 -7 0 75 0 75 -60 22 c-149 54 -288
234 -340 437 -24 92 -33 110 -70 129 -41 21 -58 19 -91 -15z"/>
</g>
</svg>
